<?xml version="1.0" encoding="iso-8859-1"?>
<!-- Generator: Adobe Illustrator 19.0.0, SVG Export Plug-In . SVG Version: 6.00 Build 0)  -->
<svg version="1.1" id="Layer_1" xmlns="http://www.w3.org/2000/svg" xmlns:xlink="http://www.w3.org/1999/xlink" x="0px" y="0px"
	 viewBox="0 0 512 512" style="enable-background:new 0 0 512 512;" xml:space="preserve">
	 <g>
	 	<g>
	<g>
		<path d="M290.28,144.242c-3.983-3.983-10.441-3.983-14.425,0l-9.688,9.688c-3.983,3.983-3.983,10.441,0,14.425
			c1.992,1.991,4.603,2.987,7.213,2.987c2.61,0,5.221-0.995,7.212-2.987l9.688-9.688
			C294.263,154.684,294.263,148.225,290.28,144.242z"/>
	</g>
</g>
<g>
	<g>
		<path d="M501.801,396.84H341.886V284.877c0-0.067-0.009-0.133-0.01-0.2l139.735-139.736c3.983-3.983,3.983-10.441,0-14.424
			l-113.83-113.83c-1.912-1.912-4.506-2.987-7.212-2.987s-5.299,1.075-7.212,2.987L70.801,299.245
			c-3.983,3.983-3.983,10.441,0,14.424l6.313,6.313L4.756,365.645c-2.622,1.655-4.349,4.412-4.693,7.493s0.731,6.151,2.924,8.344
			l113.83,113.83c1.924,1.923,4.522,2.987,7.212,2.987c0.376,0,0.755-0.021,1.132-0.063c3.081-0.344,5.839-2.07,7.493-4.693
			l45.663-72.358l6.313,6.313c1.912,1.912,4.507,2.987,7.212,2.987c2.705,0,5.299-1.075,7.212-2.987l122.432-122.433v101.974
			c0,5.633,4.566,10.199,10.199,10.199h170.115c5.633,0,10.199-4.566,10.199-10.199C512,401.406,507.434,396.84,501.801,396.84z
			 M310.471,88.422l34.822,34.822L177.357,291.181l-9.795-9.795l83.16-83.16c3.983-3.983,3.983-10.441,0-14.425
			c-3.983-3.983-10.441-3.983-14.425,0l-83.16,83.16l-10.602-10.602L310.471,88.422z M122.215,471.864l-95.779-95.78l65.466-41.314
			l71.627,71.627L122.215,471.864z M191.843,405.863l-99.407-99.407l35.675-35.675l42.034,42.034
			c1.991,1.992,4.602,2.987,7.212,2.987s5.221-0.995,7.212-2.987l182.36-182.36c3.983-3.983,3.983-10.441,0-14.425l-42.034-42.034
			l35.675-35.675l99.407,99.407L191.843,405.863z"/>
	</g>
</g>
</g>
</svg>
